<svg width="1067" height="72" viewBox="0 0 1067 72" fill="none" xmlns="http://www.w3.org/2000/svg">
<path d="M468.893 46V28H474.718C474.859 28 475.151 28.0042 475.593 28.0125C476.034 28.0208 476.459 28.05 476.868 28.1C478.318 28.275 479.547 28.7792 480.555 29.6125C481.563 30.4458 482.33 31.5042 482.855 32.7875C483.38 34.0708 483.643 35.475 483.643 37C483.643 38.525 483.38 39.9292 482.855 41.2125C482.33 42.4958 481.563 43.5542 480.555 44.3875C479.547 45.2208 478.318 45.725 476.868 45.9C476.459 45.95 476.034 45.9792 475.593 45.9875C475.151 45.9958 474.859 46 474.718 46H468.893ZM472.343 42.8H474.718C474.943 42.8 475.247 42.7958 475.63 42.7875C476.013 42.7708 476.359 42.7333 476.668 42.675C477.451 42.5167 478.088 42.15 478.58 41.575C479.08 41 479.447 40.3083 479.68 39.5C479.922 38.6917 480.043 37.8583 480.043 37C480.043 36.1 479.918 35.2458 479.668 34.4375C479.426 33.6292 479.055 32.9458 478.555 32.3875C478.055 31.8292 477.426 31.475 476.668 31.325C476.359 31.2583 476.013 31.2208 475.63 31.2125C475.247 31.2042 474.943 31.2 474.718 31.2H472.343V42.8ZM492.917 46.375C491.533 46.375 490.312 46.0792 489.254 45.4875C488.204 44.8875 487.379 44.0667 486.779 43.025C486.187 41.975 485.892 40.775 485.892 39.425C485.892 37.95 486.183 36.6667 486.767 35.575C487.35 34.4833 488.154 33.6375 489.179 33.0375C490.204 32.4292 491.383 32.125 492.717 32.125C494.133 32.125 495.337 32.4583 496.329 33.125C497.321 33.7917 498.054 34.7292 498.529 35.9375C499.004 37.1458 499.171 38.5667 499.029 40.2H495.667V38.95C495.667 37.575 495.446 36.5875 495.004 35.9875C494.571 35.3792 493.858 35.075 492.867 35.075C491.708 35.075 490.854 35.4292 490.304 36.1375C489.762 36.8375 489.492 37.875 489.492 39.25C489.492 40.5083 489.762 41.4833 490.304 42.175C490.854 42.8583 491.658 43.2 492.717 43.2C493.383 43.2 493.954 43.0542 494.429 42.7625C494.904 42.4708 495.267 42.05 495.517 41.5L498.917 42.475C498.408 43.7083 497.604 44.6667 496.504 45.35C495.412 46.0333 494.217 46.375 492.917 46.375ZM488.442 40.2V37.675H497.392V40.2H488.442ZM507.127 46.375C505.427 46.375 504.052 45.9917 503.002 45.225C501.96 44.45 501.327 43.3583 501.102 41.95L504.577 41.425C504.718 42.0583 505.031 42.5542 505.514 42.9125C506.006 43.2708 506.627 43.45 507.377 43.45C507.993 43.45 508.468 43.3333 508.802 43.1C509.135 42.8583 509.302 42.525 509.302 42.1C509.302 41.8333 509.235 41.6208 509.102 41.4625C508.968 41.2958 508.668 41.1333 508.202 40.975C507.743 40.8167 507.027 40.6083 506.052 40.35C504.952 40.0667 504.072 39.75 503.414 39.4C502.756 39.05 502.281 38.6333 501.989 38.15C501.697 37.6583 501.552 37.0667 501.552 36.375C501.552 35.5083 501.772 34.7583 502.214 34.125C502.656 33.4833 503.277 32.9917 504.077 32.65C504.885 32.3 505.835 32.125 506.927 32.125C507.985 32.125 508.922 32.2875 509.739 32.6125C510.556 32.9375 511.214 33.4 511.714 34C512.222 34.6 512.535 35.3083 512.652 36.125L509.177 36.75C509.118 36.25 508.902 35.8542 508.527 35.5625C508.152 35.2708 507.643 35.1 507.002 35.05C506.377 35.0083 505.872 35.0917 505.489 35.3C505.114 35.5083 504.927 35.8083 504.927 36.2C504.927 36.4333 505.006 36.6292 505.164 36.7875C505.331 36.9458 505.668 37.1083 506.177 37.275C506.693 37.4417 507.477 37.6583 508.527 37.925C509.552 38.1917 510.372 38.5042 510.989 38.8625C511.614 39.2125 512.068 39.6375 512.352 40.1375C512.635 40.6292 512.777 41.225 512.777 41.925C512.777 43.3083 512.277 44.3958 511.277 45.1875C510.277 45.9792 508.893 46.375 507.127 46.375ZM523.623 46C522.69 46.175 521.773 46.25 520.873 46.225C519.982 46.2083 519.182 46.0542 518.473 45.7625C517.773 45.4625 517.24 44.9833 516.873 44.325C516.54 43.7083 516.365 43.0833 516.348 42.45C516.332 41.8083 516.323 41.0833 516.323 40.275V28.75H519.723V40.075C519.723 40.6 519.728 41.075 519.736 41.5C519.753 41.9167 519.84 42.25 519.998 42.5C520.298 42.975 520.778 43.2333 521.436 43.275C522.094 43.3167 522.823 43.2833 523.623 43.175V46ZM514.023 35.125V32.5H523.623V35.125H514.023ZM530.382 46.375C529.415 46.375 528.594 46.1917 527.919 45.825C527.253 45.45 526.744 44.9542 526.394 44.3375C526.053 43.7125 525.882 43.025 525.882 42.275C525.882 41.65 525.978 41.0792 526.169 40.5625C526.361 40.0458 526.669 39.5917 527.094 39.2C527.528 38.8 528.107 38.4667 528.832 38.2C529.332 38.0167 529.928 37.8542 530.619 37.7125C531.311 37.5708 532.094 37.4375 532.969 37.3125C533.844 37.1792 534.807 37.0333 535.857 36.875L534.632 37.55C534.632 36.75 534.44 36.1625 534.057 35.7875C533.674 35.4125 533.032 35.225 532.132 35.225C531.632 35.225 531.111 35.3458 530.569 35.5875C530.028 35.8292 529.649 36.2583 529.432 36.875L526.357 35.9C526.699 34.7833 527.34 33.875 528.282 33.175C529.224 32.475 530.507 32.125 532.132 32.125C533.324 32.125 534.382 32.3083 535.307 32.675C536.232 33.0417 536.932 33.675 537.407 34.575C537.674 35.075 537.832 35.575 537.882 36.075C537.932 36.575 537.957 37.1333 537.957 37.75V46H534.982V43.225L535.407 43.8C534.749 44.7083 534.036 45.3667 533.269 45.775C532.511 46.175 531.549 46.375 530.382 46.375ZM531.107 43.7C531.732 43.7 532.257 43.5917 532.682 43.375C533.115 43.15 533.457 42.8958 533.707 42.6125C533.965 42.3292 534.14 42.0917 534.232 41.9C534.407 41.5333 534.507 41.1083 534.532 40.625C534.565 40.1333 534.582 39.725 534.582 39.4L535.582 39.65C534.574 39.8167 533.757 39.9583 533.132 40.075C532.507 40.1833 532.003 40.2833 531.619 40.375C531.236 40.4667 530.899 40.5667 530.607 40.675C530.274 40.8083 530.003 40.9542 529.794 41.1125C529.594 41.2625 529.444 41.4292 529.344 41.6125C529.253 41.7958 529.207 42 529.207 42.225C529.207 42.5333 529.282 42.8 529.432 43.025C529.59 43.2417 529.811 43.4083 530.094 43.525C530.378 43.6417 530.715 43.7 531.107 43.7ZM546.682 46.375C545.44 46.375 544.353 46.0625 543.42 45.4375C542.486 44.8125 541.757 43.9625 541.232 42.8875C540.715 41.8125 540.457 40.6 540.457 39.25C540.457 37.875 540.72 36.6542 541.245 35.5875C541.778 34.5125 542.524 33.6667 543.482 33.05C544.44 32.4333 545.565 32.125 546.857 32.125C548.14 32.125 549.22 32.4375 550.095 33.0625C550.97 33.6875 551.632 34.5375 552.082 35.6125C552.532 36.6875 552.757 37.9 552.757 39.25C552.757 40.6 552.528 41.8125 552.07 42.8875C551.62 43.9625 550.945 44.8125 550.045 45.4375C549.145 46.0625 548.024 46.375 546.682 46.375ZM547.232 43.35C547.99 43.35 548.595 43.1792 549.045 42.8375C549.503 42.4958 549.832 42.0167 550.032 41.4C550.232 40.7833 550.332 40.0667 550.332 39.25C550.332 38.4333 550.232 37.7167 550.032 37.1C549.832 36.4833 549.511 36.0042 549.07 35.6625C548.636 35.3208 548.065 35.15 547.357 35.15C546.599 35.15 545.974 35.3375 545.482 35.7125C544.999 36.0792 544.64 36.575 544.407 37.2C544.174 37.8167 544.057 38.5 544.057 39.25C544.057 40.0083 544.17 40.7 544.395 41.325C544.62 41.9417 544.965 42.4333 545.432 42.8C545.899 43.1667 546.499 43.35 547.232 43.35ZM549.907 52V41.75H550.332V32.5H553.332V52H549.907ZM561.857 46.4C560.799 46.4 559.936 46.2208 559.27 45.8625C558.603 45.5042 558.082 45.05 557.707 44.5C557.34 43.95 557.078 43.3792 556.92 42.7875C556.761 42.1875 556.665 41.6417 556.632 41.15C556.599 40.6583 556.582 40.3 556.582 40.075V32.5H560.032V38.875C560.032 39.1833 560.049 39.5792 560.082 40.0625C560.115 40.5375 560.22 41.0167 560.395 41.5C560.57 41.9833 560.853 42.3875 561.245 42.7125C561.645 43.0375 562.207 43.2 562.932 43.2C563.224 43.2 563.536 43.1542 563.87 43.0625C564.203 42.9708 564.515 42.7958 564.807 42.5375C565.099 42.2708 565.336 41.8833 565.52 41.375C565.711 40.8583 565.807 40.1833 565.807 39.35L567.757 40.275C567.757 41.3417 567.54 42.3417 567.107 43.275C566.674 44.2083 566.02 44.9625 565.145 45.5375C564.278 46.1125 563.182 46.4 561.857 46.4ZM566.232 46V41.525H565.807V32.5H569.232V46H566.232ZM579.001 46.375C577.617 46.375 576.396 46.0792 575.338 45.4875C574.288 44.8875 573.463 44.0667 572.863 43.025C572.271 41.975 571.976 40.775 571.976 39.425C571.976 37.95 572.267 36.6667 572.851 35.575C573.434 34.4833 574.238 33.6375 575.263 33.0375C576.288 32.4292 577.467 32.125 578.801 32.125C580.217 32.125 581.421 32.4583 582.413 33.125C583.405 33.7917 584.138 34.7292 584.613 35.9375C585.088 37.1458 585.255 38.5667 585.113 40.2H581.751V38.95C581.751 37.575 581.53 36.5875 581.088 35.9875C580.655 35.3792 579.942 35.075 578.951 35.075C577.792 35.075 576.938 35.4292 576.388 36.1375C575.846 36.8375 575.576 37.875 575.576 39.25C575.576 40.5083 575.846 41.4833 576.388 42.175C576.938 42.8583 577.742 43.2 578.801 43.2C579.467 43.2 580.038 43.0542 580.513 42.7625C580.988 42.4708 581.351 42.05 581.601 41.5L585.001 42.475C584.492 43.7083 583.688 44.6667 582.588 45.35C581.496 46.0333 580.301 46.375 579.001 46.375ZM574.526 40.2V37.675H583.476V40.2H574.526ZM593.211 46.375C591.511 46.375 590.136 45.9917 589.086 45.225C588.044 44.45 587.411 43.3583 587.186 41.95L590.661 41.425C590.802 42.0583 591.115 42.5542 591.598 42.9125C592.09 43.2708 592.711 43.45 593.461 43.45C594.077 43.45 594.552 43.3333 594.886 43.1C595.219 42.8583 595.386 42.525 595.386 42.1C595.386 41.8333 595.319 41.6208 595.186 41.4625C595.052 41.2958 594.752 41.1333 594.286 40.975C593.827 40.8167 593.111 40.6083 592.136 40.35C591.036 40.0667 590.156 39.75 589.498 39.4C588.84 39.05 588.365 38.6333 588.073 38.15C587.781 37.6583 587.636 37.0667 587.636 36.375C587.636 35.5083 587.856 34.7583 588.298 34.125C588.74 33.4833 589.361 32.9917 590.161 32.65C590.969 32.3 591.919 32.125 593.011 32.125C594.069 32.125 595.006 32.2875 595.823 32.6125C596.64 32.9375 597.298 33.4 597.798 34C598.306 34.6 598.619 35.3083 598.736 36.125L595.261 36.75C595.202 36.25 594.986 35.8542 594.611 35.5625C594.236 35.2708 593.727 35.1 593.086 35.05C592.461 35.0083 591.956 35.0917 591.573 35.3C591.198 35.5083 591.011 35.8083 591.011 36.2C591.011 36.4333 591.09 36.6292 591.248 36.7875C591.415 36.9458 591.752 37.1083 592.261 37.275C592.777 37.4417 593.561 37.6583 594.611 37.925C595.636 38.1917 596.456 38.5042 597.073 38.8625C597.698 39.2125 598.152 39.6375 598.436 40.1375C598.719 40.6292 598.861 41.225 598.861 41.925C598.861 43.3083 598.361 44.3958 597.361 45.1875C596.361 45.9792 594.977 46.375 593.211 46.375Z" fill="#FF9425"/>
<line x1="710" y1="39.5" x2="615" y2="39.5" stroke="#FF9425" stroke-width="3"/>
<line x1="450" y1="39.5" x2="355" y2="39.5" stroke="#FF9425" stroke-width="3"/>
</svg>
