<svg width="25" height="19" viewBox="0 0 25 19" fill="none" xmlns="http://www.w3.org/2000/svg">
<path d="M24.1071 0H0.892857C0.398996 0 0 0.385937 0 0.863636V18.1364C0 18.6141 0.398996 19 0.892857 19H24.1071C24.601 19 25 18.6141 25 18.1364V0.863636C25 0.385937 24.601 0 24.1071 0ZM22.9911 2.99034V17.0568H2.00893V2.99034L1.23884 2.41009L2.33538 1.04716L3.52958 1.94588H21.4732L22.6674 1.04716L23.764 2.41009L22.9911 2.99034ZM21.4732 1.94318L12.5 8.69034L3.52679 1.94318L2.33259 1.04446L1.23605 2.40739L2.00614 2.98764L11.5374 10.1558C11.8115 10.3618 12.1487 10.4736 12.4958 10.4736C12.8429 10.4736 13.1801 10.3618 13.4542 10.1558L22.9911 2.99034L23.7612 2.41009L22.6646 1.04716L21.4732 1.94318Z" fill="#FC5B00"/>
</svg>
