<svg width="24" height="23" viewBox="0 0 24 23" fill="none" xmlns="http://www.w3.org/2000/svg">
<path fill-rule="evenodd" clip-rule="evenodd" d="M7.087 0.110254C8.35775 0.0540039 8.76292 0.0415039 11.9999 0.0415039C15.2369 0.0415039 15.6421 0.0550456 16.9118 0.110254C18.1814 0.165462 19.0481 0.360254 19.8064 0.642546C20.6005 0.931087 21.3209 1.38213 21.9168 1.96546C22.5234 2.53734 22.9914 3.229 23.2904 3.99359C23.5851 4.72275 23.7866 5.55609 23.8451 6.77484C23.9036 7.9988 23.9166 8.38838 23.9166 11.4998C23.9166 14.6123 23.9025 15.0019 23.8451 16.2238C23.7877 17.4425 23.5851 18.2759 23.2904 19.005C22.9914 19.7697 22.5226 20.4625 21.9168 21.0353C21.3209 21.6186 20.6005 22.0686 19.8064 22.3561C19.0481 22.6394 18.1814 22.8332 16.9139 22.8894C15.6421 22.9457 15.2369 22.9582 11.9999 22.9582C8.76292 22.9582 8.35775 22.9446 7.087 22.8894C5.8195 22.8342 4.95284 22.6394 4.1945 22.3561C3.39925 22.0685 2.67872 21.6178 2.08309 21.0353C1.47683 20.463 1.00768 19.7706 0.708335 19.0061C0.414752 18.2769 0.213252 17.4436 0.154752 16.2248C0.0962519 15.0009 0.083252 14.6113 0.083252 11.4998C0.083252 8.38734 0.0973353 7.99775 0.154752 6.77692C0.212169 5.55609 0.414752 4.72275 0.708335 3.99359C1.00812 3.22909 1.47763 2.53662 2.08417 1.96442C2.67896 1.38161 3.39876 0.930507 4.19342 0.642546C4.95175 0.360254 5.81842 0.166504 7.08592 0.110254H7.087ZM16.8153 2.17275C15.5587 2.11755 15.1817 2.10609 11.9999 2.10609C8.81817 2.10609 8.44117 2.11755 7.1845 2.17275C6.02209 2.2238 5.39159 2.41025 4.97125 2.56755C4.4155 2.77588 4.01792 3.02275 3.60084 3.4238C3.20547 3.79364 2.9012 4.24388 2.71034 4.7415C2.54675 5.14567 2.35284 5.75192 2.29975 6.86963C2.24234 8.07796 2.23042 8.44046 2.23042 11.4998C2.23042 14.5592 2.24234 14.9217 2.29975 16.13C2.35284 17.2478 2.54675 17.854 2.71034 18.2582C2.901 18.755 3.20542 19.2061 3.60084 19.5759C3.98542 19.9561 4.4545 20.2488 4.97125 20.4321C5.39159 20.5894 6.02209 20.7759 7.1845 20.8269C8.44117 20.8821 8.81709 20.8936 11.9999 20.8936C15.1828 20.8936 15.5587 20.8821 16.8153 20.8269C17.9778 20.7759 18.6083 20.5894 19.0286 20.4321C19.5843 20.2238 19.9819 19.9769 20.399 19.5759C20.7944 19.2061 21.0988 18.755 21.2895 18.2582C21.4531 17.854 21.647 17.2478 21.7001 16.13C21.7575 14.9217 21.7694 14.5592 21.7694 11.4998C21.7694 8.44046 21.7575 8.07796 21.7001 6.86963C21.647 5.75192 21.4531 5.14567 21.2895 4.7415C21.0728 4.20713 20.8161 3.82484 20.399 3.4238C20.0143 3.04366 19.5461 2.7511 19.0286 2.56755C18.6083 2.41025 17.9778 2.2238 16.8153 2.17275V2.17275ZM10.4778 15.0321C11.3279 15.3724 12.2744 15.4183 13.1558 15.162C14.0371 14.9058 14.7986 14.3633 15.3102 13.6272C15.8217 12.8911 16.0516 12.007 15.9606 11.126C15.8696 10.245 15.4633 9.42168 14.8112 8.79671C14.3954 8.39721 13.8927 8.09131 13.3393 7.90103C12.7858 7.71076 12.1954 7.64084 11.6105 7.69631C11.0255 7.75179 10.4607 7.93127 9.95654 8.22185C9.45241 8.51242 9.02156 8.90686 8.695 9.37677C8.36844 9.84667 8.15429 10.3803 8.06798 10.9394C7.98167 11.4984 8.02533 12.0689 8.19584 12.6097C8.36634 13.1506 8.65944 13.6484 9.05403 14.0673C9.44863 14.4861 9.9349 14.8157 10.4778 15.0321ZM7.66875 7.33525C8.23753 6.78835 8.91277 6.35453 9.65591 6.05855C10.3991 5.76257 11.1955 5.61023 11.9999 5.61023C12.8043 5.61023 13.6008 5.76257 14.3439 6.05855C15.0871 6.35453 15.7623 6.78835 16.3311 7.33525C16.8999 7.88215 17.351 8.53142 17.6589 9.24598C17.9667 9.96054 18.1251 10.7264 18.1251 11.4998C18.1251 12.2733 17.9667 13.0391 17.6589 13.7537C17.351 14.4683 16.8999 15.1175 16.3311 15.6644C15.1824 16.7689 13.6244 17.3894 11.9999 17.3894C10.3754 17.3894 8.81745 16.7689 7.66875 15.6644C6.52006 14.5599 5.87472 13.0619 5.87472 11.4998C5.87472 9.93782 6.52006 8.43977 7.66875 7.33525V7.33525ZM19.4836 6.48734C19.6245 6.35949 19.7374 6.20575 19.8154 6.03523C19.8935 5.8647 19.9351 5.68085 19.938 5.49456C19.9408 5.30827 19.9047 5.12332 19.8319 4.95068C19.759 4.77804 19.6509 4.6212 19.5139 4.48946C19.3769 4.35772 19.2138 4.25375 19.0342 4.18371C18.8547 4.11367 18.6623 4.07898 18.4686 4.08169C18.2748 4.08441 18.0836 4.12448 17.9063 4.19952C17.7289 4.27457 17.569 4.38306 17.4361 4.51859C17.1775 4.78216 17.0359 5.13226 17.0414 5.49456C17.0469 5.85686 17.199 6.20284 17.4655 6.45905C17.732 6.71526 18.0918 6.86153 18.4686 6.86682C18.8454 6.8721 19.2095 6.73597 19.4836 6.48734V6.48734Z" fill="white"/>
</svg>
