<svg width="22" height="25" viewBox="0 0 22 25" fill="none" xmlns="http://www.w3.org/2000/svg">
<path d="M21 10.66C21 17.56 11 24 11 24C11 24 1 17.56 1 10.66C1 8.09801 2.05357 5.64095 3.92893 3.82935C5.8043 2.01775 8.34784 1 11 1C13.6522 1 16.1957 2.01775 18.0711 3.82935C19.9464 5.64095 21 8.09801 21 10.66Z" stroke="#FC5B00" stroke-width="2" stroke-linecap="round" stroke-linejoin="round"/>
<path d="M10.9998 12.9599C12.3148 12.9599 13.3808 11.9301 13.3808 10.6599C13.3808 9.38961 12.3148 8.35986 10.9998 8.35986C9.68489 8.35986 8.6189 9.38961 8.6189 10.6599C8.6189 11.9301 9.68489 12.9599 10.9998 12.9599Z" stroke="#FC5B00" stroke-width="2" stroke-linecap="round" stroke-linejoin="round"/>
</svg>
