<svg width="20" height="19" viewBox="0 0 20 19" fill="none" xmlns="http://www.w3.org/2000/svg">
<path d="M15.4821 10.2898C15.3845 10.1969 15.2685 10.1232 15.1409 10.0729C15.0132 10.0226 14.8763 9.99674 14.7381 9.99674C14.5999 9.99674 14.4631 10.0226 14.3354 10.0729C14.2077 10.1232 14.0918 10.1969 13.9941 10.2898L12.3167 11.8833C11.539 11.6634 10.0879 11.1636 9.16814 10.2898C8.2484 9.41613 7.72224 8.03758 7.49072 7.29882L9.16814 5.70534C9.26595 5.61258 9.34355 5.50241 9.39649 5.38114C9.44943 5.25986 9.47669 5.12986 9.47669 4.99857C9.47669 4.86728 9.44943 4.73728 9.39649 4.616C9.34355 4.49473 9.26595 4.38456 9.16814 4.2918L4.95881 0.293105C4.86117 0.20019 4.7452 0.126476 4.61754 0.0761819C4.48987 0.0258876 4.35302 0 4.21482 0C4.07661 0 3.93976 0.0258876 3.8121 0.0761819C3.68443 0.126476 3.56846 0.20019 3.47082 0.293105L0.616894 3.00422C0.217008 3.3841 -0.00819078 3.90593 0.000227877 4.43875C0.0244315 5.86229 0.421161 10.8067 4.52315 14.7034C8.62514 18.6001 13.83 18.976 15.3295 19H15.359C15.9146 19 16.4398 18.7921 16.8375 18.4142L19.6915 15.7031C19.7893 15.6103 19.8669 15.5002 19.9198 15.3789C19.9727 15.2576 20 15.1276 20 14.9963C20 14.865 19.9727 14.735 19.9198 14.6137C19.8669 14.4925 19.7893 14.3823 19.6915 14.2895L15.4821 10.2898ZM15.3485 16.9997C14.0352 16.9787 9.54172 16.6438 6.01115 13.2889C2.469 9.92396 2.12594 5.64036 2.10489 4.41776L4.21482 2.41341L6.93615 4.99857L5.57548 6.29115C5.45179 6.40856 5.36085 6.5534 5.31087 6.71258C5.2609 6.87176 5.25347 7.04026 5.28925 7.20285C5.3145 7.31781 5.93222 10.0439 7.67909 11.7034C9.42596 13.3628 12.2957 13.9496 12.4167 13.9736C12.5877 14.0086 12.7653 14.0021 12.933 13.9547C13.1007 13.9074 13.2532 13.8207 13.3764 13.7027L14.7381 12.4102L17.4595 14.9953L15.3485 16.9997Z" fill="#FC5B00"/>
</svg>
