<svg width="23" height="23" viewBox="0 0 23 23" fill="none" xmlns="http://www.w3.org/2000/svg">
<path fill-rule="evenodd" clip-rule="evenodd" d="M16.7697 13.7828C16.4827 13.64 15.0759 12.9519 14.8139 12.8561C14.552 12.7612 14.3614 12.7142 14.1697 12.9998C13.9791 13.2835 13.4312 13.9256 13.2646 14.1153C13.097 14.306 12.9304 14.329 12.6444 14.1872C12.3584 14.0434 11.4359 13.7435 10.343 12.7736C9.49271 12.0185 8.91784 11.086 8.75125 10.8004C8.58466 10.5158 8.73295 10.3615 8.87643 10.2197C9.00546 10.0922 9.16242 9.88715 9.3059 9.72136C9.44938 9.55461 9.49657 9.43577 9.5919 9.24507C9.68819 9.05532 9.64004 8.88952 9.56782 8.74673C9.49657 8.60394 8.92458 7.2019 8.68577 6.6317C8.4537 6.07682 8.21777 6.15253 8.04252 6.14295C7.87497 6.13528 7.6843 6.13336 7.49364 6.13336C7.30298 6.13336 6.99291 6.20428 6.73099 6.48986C6.4681 6.77449 5.72952 7.46353 5.72952 8.86557C5.72952 10.2666 6.7541 11.6208 6.89758 11.8115C7.04106 12.0012 8.91495 14.8781 11.7855 16.1115C12.4692 16.4048 13.0017 16.5801 13.4167 16.7105C14.1023 16.928 14.7263 16.8973 15.2193 16.8236C15.7682 16.7421 16.9122 16.1345 17.151 15.4694C17.3889 14.8043 17.3889 14.2341 17.3176 14.1153C17.2463 13.9965 17.0566 13.9256 16.7697 13.7828ZM11.5486 20.8773H11.5448C9.83979 20.8776 8.16613 20.4215 6.69921 19.5567L6.35255 19.3516L2.74921 20.2927L3.71119 16.7967L3.4849 16.4383C2.53172 14.9283 2.02728 13.1807 2.02989 11.3975C2.03181 6.17457 6.30151 1.92533 11.5525 1.92533C14.0946 1.92533 16.4847 2.91241 18.2815 4.70257C19.1678 5.58096 19.8702 6.62553 20.3483 7.77585C20.8263 8.92616 21.0703 10.1594 21.0664 11.4042C21.0644 16.6271 16.7947 20.8773 11.5486 20.8773ZM19.6489 3.3427C18.5879 2.27984 17.3255 1.43709 15.9349 0.863305C14.5443 0.289517 13.053 -0.0039064 11.5476 3.92701e-05C5.2365 3.92701e-05 0.0982204 5.11274 0.0962945 11.3965C0.0933701 13.3963 0.620497 15.3615 1.62449 17.0938L0 23L6.07041 21.4149C7.74966 22.3255 9.63147 22.8025 11.5438 22.8026H11.5486C17.8597 22.8026 22.998 17.6899 22.9999 11.4051C23.0046 9.90754 22.7108 8.42387 22.1356 7.03998C21.5604 5.65608 20.7152 4.39942 19.6489 3.3427Z" fill="white"/>
</svg>
